<?xml version="1.0" encoding="UTF-8" standalone="no"?>
<!-- Created with Inkscape (http://www.inkscape.org/) -->

<svg
   xmlns:dc="http://purl.org/dc/elements/1.1/"
   xmlns:cc="http://creativecommons.org/ns#"
   xmlns:rdf="http://www.w3.org/1999/02/22-rdf-syntax-ns#"
   xmlns:svg="http://www.w3.org/2000/svg"
   xmlns="http://www.w3.org/2000/svg"
   xmlns:xlink="http://www.w3.org/1999/xlink"
   xmlns:sodipodi="http://sodipodi.sourceforge.net/DTD/sodipodi-0.dtd"
   xmlns:inkscape="http://www.inkscape.org/namespaces/inkscape"
   width="40"
   height="40"
   viewBox="0 0 40 40.000001"
   id="svg4190"
   version="1.1"
   inkscape:version="0.91 r13725"
   sodipodi:docname="Box.svg"
   inkscape:export-filename="/home/kao/Documents/C_SDL_GAME/img/box.png"
   inkscape:export-xdpi="90"
   inkscape:export-ydpi="90">
  <defs
     id="defs4192">
    <filter
       inkscape:collect="always"
       style="color-interpolation-filters:sRGB"
       id="filter5093"
       x="-0.0822375"
       width="1.164475"
       y="-1.3158001"
       height="3.6316002">
      <feGaussianBlur
         inkscape:collect="always"
         stdDeviation="1.0279687"
         id="feGaussianBlur5095" />
    </filter>
  </defs>
  <sodipodi:namedview
     id="base"
     pagecolor="#ffffff"
     bordercolor="#666666"
     borderopacity="1.0"
     inkscape:pageopacity="0.0"
     inkscape:pageshadow="2"
     inkscape:zoom="1"
     inkscape:cx="74.314894"
     inkscape:cy="24.624237"
     inkscape:document-units="px"
     inkscape:current-layer="layer3"
     showgrid="false"
     units="px"
     inkscape:window-width="1920"
     inkscape:window-height="1016"
     inkscape:window-x="0"
     inkscape:window-y="27"
     inkscape:window-maximized="1" />
  <metadata
     id="metadata4195">
    <rdf:RDF>
      <cc:Work
         rdf:about="">
        <dc:format>image/svg+xml</dc:format>
        <dc:type
           rdf:resource="http://purl.org/dc/dcmitype/StillImage" />
        <dc:title />
      </cc:Work>
    </rdf:RDF>
  </metadata>
  <g
     inkscape:label="Box"
     inkscape:groupmode="layer"
     id="layer1"
     transform="translate(0,-1012.3622)"
     style="display:none">
    <rect
       style="opacity:1;fill:#005789;fill-opacity:1;stroke:none;stroke-width:1;stroke-linejoin:round;stroke-miterlimit:4;stroke-dasharray:none;stroke-dashoffset:0;stroke-opacity:1"
       id="rect4903"
       width="32.5"
       height="33.392857"
       x="3.2142856"
       y="1015.6658"
       rx="0.53571397"
       ry="0.53571397" />
    <rect
       transform="matrix(0,1.0560981,-0.51633917,0,530.46531,1011.7391)"
       ry="1.0375234"
       rx="0.50725776"
       y="1016.7372"
       x="4.9107132"
       height="1.8749999"
       width="30"
       id="rect5097"
       style="opacity:0.94300022;fill:#000000;fill-opacity:1;stroke:none;stroke-width:1;stroke-linejoin:round;stroke-miterlimit:4;stroke-dasharray:none;stroke-dashoffset:0;stroke-opacity:1;filter:url(#filter5093)" />
    <g
       id="g5107"
       transform="translate(-1.5625,-0.4375)">
      <rect
         style="opacity:0.94300022;fill:#003a5b;fill-opacity:1;stroke:none;stroke-width:1;stroke-linejoin:round;stroke-miterlimit:4;stroke-dasharray:none;stroke-dashoffset:0;stroke-opacity:1"
         id="rect5109"
         width="0.97227192"
         height="31.908192"
         x="8.6620579"
         y="1016.4764"
         rx="0.53571397"
         ry="0.53571397" />
      <rect
         ry="0.53571397"
         rx="0.53571397"
         y="1016.5076"
         x="9.5995579"
         height="31.908192"
         width="0.97227192"
         id="rect5111"
         style="opacity:0.94300022;fill:#0075bb;fill-opacity:1;stroke:none;stroke-width:1;stroke-linejoin:round;stroke-miterlimit:4;stroke-dasharray:none;stroke-dashoffset:0;stroke-opacity:1" />
    </g>
    <g
       transform="translate(6.375,-0.25)"
       id="g5113">
      <rect
         style="opacity:0.94300022;fill:#003a5b;fill-opacity:1;stroke:none;stroke-width:1;stroke-linejoin:round;stroke-miterlimit:4;stroke-dasharray:none;stroke-dashoffset:0;stroke-opacity:1"
         id="rect5115"
         width="0.97227192"
         height="31.908192"
         x="8.6620579"
         y="1016.4764"
         rx="0.53571397"
         ry="0.53571397" />
      <rect
         ry="0.53571397"
         rx="0.53571397"
         y="1016.5076"
         x="9.5995579"
         height="31.908192"
         width="0.97227192"
         id="rect5117"
         style="opacity:0.94300022;fill:#0075bb;fill-opacity:1;stroke:none;stroke-width:1;stroke-linejoin:round;stroke-miterlimit:4;stroke-dasharray:none;stroke-dashoffset:0;stroke-opacity:1" />
    </g>
    <g
       transform="translate(14.375,-0.25)"
       id="g5125">
      <rect
         style="opacity:0.94300022;fill:#003a5b;fill-opacity:1;stroke:none;stroke-width:1;stroke-linejoin:round;stroke-miterlimit:4;stroke-dasharray:none;stroke-dashoffset:0;stroke-opacity:1"
         id="rect5127"
         width="0.97227192"
         height="31.908192"
         x="8.6620579"
         y="1016.4764"
         rx="0.53571397"
         ry="0.53571397" />
      <rect
         ry="0.53571397"
         rx="0.53571397"
         y="1016.5076"
         x="9.5995579"
         height="31.908192"
         width="0.97227192"
         id="rect5129"
         style="opacity:0.94300022;fill:#0075bb;fill-opacity:1;stroke:none;stroke-width:1;stroke-linejoin:round;stroke-miterlimit:4;stroke-dasharray:none;stroke-dashoffset:0;stroke-opacity:1" />
    </g>
    <g
       transform="translate(22.375,-0.25)"
       id="g5137">
      <rect
         style="opacity:0.94300022;fill:#003a5b;fill-opacity:1;stroke:none;stroke-width:1;stroke-linejoin:round;stroke-miterlimit:4;stroke-dasharray:none;stroke-dashoffset:0;stroke-opacity:1"
         id="rect5139"
         width="0.97227192"
         height="31.908192"
         x="8.6620579"
         y="1016.4764"
         rx="0.53571397"
         ry="0.53571397" />
      <rect
         ry="0.53571397"
         rx="0.53571397"
         y="1016.5076"
         x="9.5995579"
         height="31.908192"
         width="0.97227192"
         id="rect5141"
         style="opacity:0.94300022;fill:#0075bb;fill-opacity:1;stroke:none;stroke-width:1;stroke-linejoin:round;stroke-miterlimit:4;stroke-dasharray:none;stroke-dashoffset:0;stroke-opacity:1" />
    </g>
    <rect
       style="opacity:0.94300022;fill:#000000;fill-opacity:1;stroke:none;stroke-width:1;stroke-linejoin:round;stroke-miterlimit:4;stroke-dasharray:none;stroke-dashoffset:0;stroke-opacity:1;filter:url(#filter5093)"
       id="rect4772"
       width="30"
       height="1.8749999"
       x="4.9107132"
       y="1016.7372"
       rx="0.4778327"
       ry="0.97603577"
       transform="matrix(1.1211329,0,0,0.54886714,-2.6350564,458.95299)" />
    <path
       style="opacity:1;fill:#00101b;fill-opacity:1;stroke:none;stroke-width:1;stroke-linejoin:round;stroke-miterlimit:4;stroke-dasharray:none;stroke-dashoffset:0;stroke-opacity:1"
       d="M 3.1953125,-0.1328125 C 3.0466144,-0.15325 2.9076679,-0.11857187 2.8027344,-0.01367188 L 0.12304688,2.6660156 c -0.2098671,0.2099 -0.12895839,0.55175 0.0859375,0.84375 L 2.5,6.6210938 2.5,33.240234 0.20898438,36.351562 c -0.21488767,0.292001 -0.29579657,0.635804 -0.0859375,0.845704 l 2.67968752,2.679687 c 0.2098591,0.2098 0.5549822,0.13241 0.84375,-0.08789 L 6.6542969,37.5 l 26.7382811,0 3.007813,2.289062 c 0.288768,0.220301 0.633891,0.297691 0.84375,0.08789 l 2.679687,-2.679687 c 0.209858,-0.2099 0.12895,-0.553703 -0.08594,-0.845704 L 37.5,33.175781 37.5,6.6855469 39.837891,3.5097656 c 0.214887,-0.292 0.295795,-0.63385 0.08594,-0.84375 l -2.679687,-2.67968748 c -0.209859,-0.20979999 -0.554982,-0.13436249 -0.84375,0.0859375 L 33.210938,2.5 6.8359375,2.5 3.6464844,0.07226562 C 3.502095,-0.03788437 3.3440106,-0.112375 3.1953125,-0.1328125 Z M 5.5351562,5 34.464844,5 C 34.76163,5 35,5.2383562 35,5.5351562 L 35,34.464844 C 35,34.761644 34.76163,35 34.464844,35 L 5.5351562,35 C 5.2383706,35 5,34.761644 5,34.464844 L 5,5.5351562 C 5,5.2383563 5.2383706,5 5.5351562,5 Z"
       id="path4747"
       inkscape:connector-curvature="0"
       transform="translate(0,1012.3622)" />
  </g>
  <g
     inkscape:groupmode="layer"
     id="layer3"
     inkscape:label="Box 1">
    <rect
       style="opacity:1;fill:#0378ff;fill-opacity:1;stroke:none;stroke-width:1;stroke-linejoin:round;stroke-miterlimit:4;stroke-dasharray:none;stroke-dashoffset:0;stroke-opacity:1"
       id="rect6399"
       width="38"
       height="38"
       x="1"
       y="1"
       rx="0"
       ry="0" />
    <rect
       transform="matrix(0,1,-1,0,0,0)"
       style="opacity:1;fill:#3694ff;fill-opacity:1;stroke:none;stroke-width:1;stroke-linejoin:round;stroke-miterlimit:4;stroke-dasharray:none;stroke-dashoffset:0;stroke-opacity:1"
       id="rect6571"
       width="38"
       height="1"
       x="1"
       y="-11" />
    <rect
       style="opacity:1;fill:#4fa1ff;fill-opacity:1;stroke:none;stroke-width:1;stroke-linejoin:round;stroke-miterlimit:4;stroke-dasharray:none;stroke-dashoffset:0;stroke-opacity:1"
       id="rect6404"
       width="40"
       height="1"
       x="0"
       y="0" />
    <rect
       y="-10"
       x="1"
       height="1"
       width="38"
       id="rect6573"
       style="opacity:1;fill:#28507f;fill-opacity:1;stroke:none;stroke-width:1;stroke-linejoin:round;stroke-miterlimit:4;stroke-dasharray:none;stroke-dashoffset:0;stroke-opacity:1"
       transform="matrix(0,1,-1,0,0,0)" />
    <rect
       y="-39"
       x="1"
       height="5"
       width="38"
       id="rect6414"
       style="opacity:1;fill:#013c7f;fill-opacity:1;stroke:none;stroke-width:1;stroke-linejoin:round;stroke-miterlimit:4;stroke-dasharray:none;stroke-dashoffset:0;stroke-opacity:1"
       transform="matrix(0,1,-1,0,0,0)" />
    <rect
       y="1.0000039"
       x="-39.000004"
       height="5"
       width="38"
       id="rect6422"
       style="opacity:1;fill:#013c7f;fill-opacity:1;stroke:none;stroke-width:1;stroke-linejoin:round;stroke-miterlimit:4;stroke-dasharray:none;stroke-dashoffset:0;stroke-opacity:1"
       transform="matrix(0,-1,1,0,0,0)" />
    <rect
       transform="matrix(0,1,-1,0,0,0)"
       style="opacity:1;fill:#4fa1ff;fill-opacity:1;stroke:none;stroke-width:1;stroke-linejoin:round;stroke-miterlimit:4;stroke-dasharray:none;stroke-dashoffset:0;stroke-opacity:1"
       id="rect6426"
       width="40"
       height="1"
       x="0"
       y="-1" />
    <rect
       y="39"
       x="0"
       height="1"
       width="40"
       id="rect6430"
       style="opacity:1;fill:#28507f;fill-opacity:1;stroke:none;stroke-width:1;stroke-linejoin:round;stroke-miterlimit:4;stroke-dasharray:none;stroke-dashoffset:0;stroke-opacity:1" />
    <rect
       y="-40"
       x="0"
       height="1"
       width="40"
       id="rect6432"
       style="opacity:1;fill:#28507f;fill-opacity:1;stroke:none;stroke-width:1;stroke-linejoin:round;stroke-miterlimit:4;stroke-dasharray:none;stroke-dashoffset:0;stroke-opacity:1"
       transform="matrix(0,1,-1,0,0,0)" />
    <rect
       y="-16"
       x="1"
       height="1"
       width="38"
       id="rect6575"
       style="opacity:1;fill:#3694ff;fill-opacity:1;stroke:none;stroke-width:1;stroke-linejoin:round;stroke-miterlimit:4;stroke-dasharray:none;stroke-dashoffset:0;stroke-opacity:1"
       transform="matrix(0,1,-1,0,0,0)" />
    <rect
       transform="matrix(0,1,-1,0,0,0)"
       style="opacity:1;fill:#28507f;fill-opacity:1;stroke:none;stroke-width:1;stroke-linejoin:round;stroke-miterlimit:4;stroke-dasharray:none;stroke-dashoffset:0;stroke-opacity:1"
       id="rect6577"
       width="38"
       height="1"
       x="1"
       y="-15" />
    <rect
       transform="matrix(0,1,-1,0,0,0)"
       style="opacity:1;fill:#3694ff;fill-opacity:1;stroke:none;stroke-width:1;stroke-linejoin:round;stroke-miterlimit:4;stroke-dasharray:none;stroke-dashoffset:0;stroke-opacity:1"
       id="rect6579"
       width="38"
       height="1"
       x="1"
       y="-21" />
    <rect
       y="-20"
       x="1"
       height="1"
       width="38"
       id="rect6581"
       style="opacity:1;fill:#28507f;fill-opacity:1;stroke:none;stroke-width:1;stroke-linejoin:round;stroke-miterlimit:4;stroke-dasharray:none;stroke-dashoffset:0;stroke-opacity:1"
       transform="matrix(0,1,-1,0,0,0)" />
    <rect
       y="-26"
       x="1"
       height="1"
       width="38"
       id="rect6583"
       style="opacity:1;fill:#3694ff;fill-opacity:1;stroke:none;stroke-width:1;stroke-linejoin:round;stroke-miterlimit:4;stroke-dasharray:none;stroke-dashoffset:0;stroke-opacity:1"
       transform="matrix(0,1,-1,0,0,0)" />
    <rect
       transform="matrix(0,1,-1,0,0,0)"
       style="opacity:1;fill:#28507f;fill-opacity:1;stroke:none;stroke-width:1;stroke-linejoin:round;stroke-miterlimit:4;stroke-dasharray:none;stroke-dashoffset:0;stroke-opacity:1"
       id="rect6585"
       width="38"
       height="1"
       x="1"
       y="-25" />
    <rect
       transform="matrix(0,1,-1,0,0,0)"
       style="opacity:1;fill:#3694ff;fill-opacity:1;stroke:none;stroke-width:1;stroke-linejoin:round;stroke-miterlimit:4;stroke-dasharray:none;stroke-dashoffset:0;stroke-opacity:1"
       id="rect6587"
       width="38"
       height="1"
       x="1"
       y="-31" />
    <rect
       y="-30"
       x="1"
       height="1"
       width="38"
       id="rect6589"
       style="opacity:1;fill:#28507f;fill-opacity:1;stroke:none;stroke-width:1;stroke-linejoin:round;stroke-miterlimit:4;stroke-dasharray:none;stroke-dashoffset:0;stroke-opacity:1"
       transform="matrix(0,1,-1,0,0,0)" />
    <rect
       style="opacity:1;fill:#013c7f;fill-opacity:1;stroke:none;stroke-width:1;stroke-linejoin:round;stroke-miterlimit:4;stroke-dasharray:none;stroke-dashoffset:0;stroke-opacity:1"
       id="rect6410"
       width="38"
       height="5"
       x="1"
       y="1" />
    <rect
       transform="scale(-1,-1)"
       style="opacity:1;fill:#013c7f;fill-opacity:1;stroke:none;stroke-width:1;stroke-linejoin:round;stroke-miterlimit:4;stroke-dasharray:none;stroke-dashoffset:0;stroke-opacity:1"
       id="rect6418"
       width="38"
       height="5"
       x="-39"
       y="-38.999996" />
  </g>
  <g
     inkscape:groupmode="layer"
     id="layer2"
     inkscape:label="Logo"
     style="display:none"
     sodipodi:insensitive="true">
    <g
       id="g5209"
       transform="matrix(0.04356283,0,0,0.04356283,20.126973,20.0346)">
      <circle
         style="fill:#ffff00;fill-opacity:1"
         id="circle2825"
         r="260"
         cy="0"
         cx="0" />
      <circle
         id="circle6"
         r="50"
         cy="0"
         cx="0" />
      <path
         id="bld"
         d="M 75,0 A 75,75 0 0 0 37.5,-64.952 L 125,-216.506 A 250,250 0 0 1 250,0 Z"
         inkscape:connector-curvature="0" />
      <use
         xlink:href="#bld"
         height="600"
         width="600"
         y="0"
         x="0"
         id="use9"
         transform="matrix(-0.5,0.8660254,-0.8660254,-0.5,0,0)" />
      <use
         xlink:href="#bld"
         height="600"
         width="600"
         y="0"
         x="0"
         id="use11"
         transform="matrix(-0.5,-0.8660254,0.8660254,-0.5,0,0)" />
    </g>
  </g>
</svg>
