<?xml version="1.0" encoding="UTF-8" standalone="no"?>
<!-- Created with Inkscape (http://www.inkscape.org/) -->

<svg
   xmlns:dc="http://purl.org/dc/elements/1.1/"
   xmlns:cc="http://creativecommons.org/ns#"
   xmlns:rdf="http://www.w3.org/1999/02/22-rdf-syntax-ns#"
   xmlns:svg="http://www.w3.org/2000/svg"
   xmlns="http://www.w3.org/2000/svg"
   xmlns:xlink="http://www.w3.org/1999/xlink"
   xmlns:sodipodi="http://sodipodi.sourceforge.net/DTD/sodipodi-0.dtd"
   xmlns:inkscape="http://www.inkscape.org/namespaces/inkscape"
   width="40"
   height="40"
   viewBox="0 0 40 40.000001"
   id="svg2"
   version="1.1"
   inkscape:version="0.91 r13725"
   sodipodi:docname="Goal.svg"
   inkscape:export-filename="/home/kao/Documents/C_SDL_GAME/img/goal.png"
   inkscape:export-xdpi="90"
   inkscape:export-ydpi="90">
  <defs
     id="defs4">
    <linearGradient
       inkscape:collect="always"
       id="linearGradient5348">
      <stop
         style="stop-color:#dbf7b0;stop-opacity:1"
         offset="0"
         id="stop5350" />
      <stop
         style="stop-color:#afed53;stop-opacity:0;"
         offset="1"
         id="stop5352" />
    </linearGradient>
    <inkscape:perspective
       sodipodi:type="inkscape:persp3d"
       inkscape:vp_x="17.172594 : 775.68878 : 1"
       inkscape:vp_y="0 : 1000 : 0"
       inkscape:vp_z="744.09448 : 526.1811 : 1"
       inkscape:persp3d-origin="372.04724 : 350.7874 : 1"
       id="perspective5090" />
    <filter
       inkscape:collect="always"
       style="color-interpolation-filters:sRGB"
       id="filter5276"
       x="-0.64670002"
       width="2.2934"
       y="-0.16870435"
       height="1.3374087">
      <feGaussianBlur
         inkscape:collect="always"
         stdDeviation="40.41875"
         id="feGaussianBlur5278" />
    </filter>
    <radialGradient
       inkscape:collect="always"
       xlink:href="#linearGradient5348"
       id="radialGradient5354"
       cx="300.71429"
       cy="384.14703"
       fx="300.71429"
       fy="384.14703"
       r="75"
       gradientTransform="matrix(0.00551831,-0.75593173,6.3072102,0.04072663,-2040.9811,721.97507)"
       gradientUnits="userSpaceOnUse" />
  </defs>
  <sodipodi:namedview
     id="base"
     pagecolor="#ffffff"
     bordercolor="#666666"
     borderopacity="1.0"
     inkscape:pageopacity="0.0"
     inkscape:pageshadow="2"
     inkscape:zoom="3.959798"
     inkscape:cx="28.597251"
     inkscape:cy="51.457258"
     inkscape:document-units="px"
     inkscape:current-layer="layer1"
     showgrid="false"
     inkscape:window-width="1920"
     inkscape:window-height="1016"
     inkscape:window-x="0"
     inkscape:window-y="27"
     inkscape:window-maximized="1"
     units="px" />
  <metadata
     id="metadata7">
    <rdf:RDF>
      <cc:Work
         rdf:about="">
        <dc:format>image/svg+xml</dc:format>
        <dc:type
           rdf:resource="http://purl.org/dc/dcmitype/StillImage" />
        <dc:title></dc:title>
      </cc:Work>
    </rdf:RDF>
  </metadata>
  <g
     inkscape:label="Calque 1"
     inkscape:groupmode="layer"
     id="layer1"
     transform="translate(0,-1012.3622)">
    <g
       id="g5356"
       transform="matrix(0.03854768,-0.04247062,0.04247062,0.03854768,-16.89145,1027.0731)">
      <path
         transform="matrix(0,-0.75594949,0.80277561,0,69.74315,737.62544)"
         inkscape:connector-curvature="0"
         style="opacity:1;fill:#8fdd18;fill-opacity:1;stroke:none;stroke-width:2;stroke-linejoin:round;stroke-miterlimit:4;stroke-dasharray:none;stroke-dashoffset:0;stroke-opacity:1;filter:url(#filter5276)"
         d="m 275,102.36133 a 75,75 0 0 0 -74.75,70 l -0.25,0 0,5 0,425 a 75,75 0 0 0 75,75 75,75 0 0 0 75,-75 l 0,-425 0,-5 -0.17578,0 a 75,75 0 0 0 -74.82422,-70 z"
         id="path5122" />
      <path
         inkscape:connector-curvature="0"
         id="path5106"
         d="m 151.91634,529.73932 a 60.208171,56.696214 0 0 0 56.19429,56.50723 l 0,0.18899 4.01387,0 341.17964,0 a 60.208171,56.696214 0 0 0 60.20818,-56.69622 60.208171,56.696214 0 0 0 -60.20818,-56.69621 l -341.17964,0 -4.01387,0 0,0.13288 a 60.208171,56.696214 0 0 0 -56.19429,56.56333 z"
         style="opacity:1;fill:#8fdd18;fill-opacity:1;stroke:none;stroke-width:2;stroke-linejoin:round;stroke-miterlimit:4;stroke-dasharray:none;stroke-dashoffset:0;stroke-opacity:1" />
      <path
         inkscape:connector-curvature="0"
         style="opacity:1;fill:url(#radialGradient5354);fill-opacity:1;stroke:none;stroke-width:2;stroke-linejoin:round;stroke-miterlimit:4;stroke-dasharray:none;stroke-dashoffset:0;stroke-opacity:1"
         d="m 152.48975,510.30062 a 60.282963,56.696214 0 0 0 56.26409,56.50723 l 0,0.18898 4.01886,0 341.60347,0 a 60.282963,56.696214 0 0 0 60.28297,-56.69621 60.282963,56.696214 0 0 0 -60.28297,-56.69621 l -341.60347,0 -4.01886,0 0,0.13288 a 60.282963,56.696214 0 0 0 -56.26409,56.56333 z"
         id="path5280" />
      <rect
         transform="matrix(0,-1,1,0,0,0)"
         y="342.28952"
         x="-363.9704"
         height="1.1468223"
         width="7.5594954"
         id="rect5290"
         style="opacity:1;fill:#afed53;fill-opacity:1;stroke:none;stroke-width:2;stroke-linejoin:round;stroke-miterlimit:4;stroke-dasharray:none;stroke-dashoffset:0;stroke-opacity:1" />
    </g>
  </g>
</svg>
